<svg width="18" height="18" viewBox="0 0 18 18" fill="none" xmlns="http://www.w3.org/2000/svg">
<path d="M16.2305 9.96094H9.96094V16.2305C9.96094 16.9336 9.43359 17.4609 8.73047 17.4609C8.02734 17.4609 7.5 16.9336 7.5 16.2305V9.96094H1.23047C0.527344 9.96094 0 9.43359 0 8.73047C0 8.02734 0.527344 7.5 1.23047 7.5H7.5V1.23047C7.5 0.527344 8.02734 0 8.73047 0C9.43359 0 9.96094 0.527344 9.96094 1.23047V7.5H16.2305C16.9336 7.5 17.4609 8.02734 17.4609 8.73047C17.4609 9.43359 16.9336 9.96094 16.2305 9.96094Z" fill="#98C95C"/>
</svg>
